<svg aria-hidden="true" style="width:0;height:0;position:absolute;overflow:hidden" xmlns="http://www.w3.org/2000/svg"><defs><symbol id="close" viewBox="0 0 32 32"><path d="M30.355 32a1.646 1.646 0 0 0 1.163-2.811L2.811.482A1.646 1.646 0 1 0 .483 2.811L29.19 31.517a1.65 1.65 0 0 0 1.165.483z"/><path d="M1.645 32c.422 0 .843-.16 1.163-.483L31.517 2.811A1.647 1.647 0 0 0 29.188.482L.481 29.189A1.646 1.646 0 0 0 1.644 32z"/></symbol><symbol id="burger" viewBox="0 0 60 32"><path d="M2 0h56a2 2 0 1 1 0 4H2a2 2 0 1 1 0-4zM2 14h56a2 2 0 1 1 0 4H2a2 2 0 1 1 0-4zM2 28h56a2 2 0 1 1 0 4H2a2 2 0 1 1 0-4z"/></symbol><symbol id="star-all" viewBox="0 0 34 32"><path fill="#ab816c" style="fill:var(--color1,#ab816c)" d="M15.591 2.79c.504-1.552 2.699-1.552 3.204 0l2.51 7.726a1.685 1.685 0 0 0 1.602 1.164h8.124c1.632 0 2.31 2.088.99 3.047l-6.572 4.775a1.685 1.685 0 0 0-.612 1.883l2.51 7.726c.504 1.552-1.272 2.842-2.592 1.883l-6.572-4.775a1.684 1.684 0 0 0-1.98 0l-6.572 4.775c-1.32.959-3.096-.331-2.592-1.883l2.51-7.726a1.685 1.685 0 0 0-.612-1.883l-6.572-4.775c-1.32-.959-.642-3.047.99-3.047h8.124c.73 0 1.376-.47 1.602-1.164l2.51-7.726z"/></symbol><symbol id="star-border" viewBox="0 0 34 32"><path fill="none" stroke="#ab816c" style="stroke:var(--color1,#ab816c)" stroke-width="1.684" d="m17.503 3.05 2.51 7.726a2.526 2.526 0 0 0 2.403 1.746h8.124c.816 0 1.155 1.044.495 1.523l-6.572 4.775a2.528 2.528 0 0 0-.918 2.825l2.51 7.726c.252.776-.636 1.421-1.296.941l-6.572-4.775a2.528 2.528 0 0 0-2.97 0l-6.572 4.775c-.66.48-1.548-.166-1.296-.941l2.51-7.726a2.527 2.527 0 0 0-.918-2.825l-6.572-4.775c-.66-.479-.321-1.523.495-1.523h8.124a2.528 2.528 0 0 0 2.403-1.746l2.51-7.726c.252-.776 1.35-.776 1.602 0z"/></symbol></defs></svg>