<svg aria-hidden="true" style="position: absolute; width: 0; height: 0; overflow: hidden;" version="1.1" xmlns="http://www.w3.org/2000/svg" xmlns:xlink="http://www.w3.org/1999/xlink">
<defs>
<symbol id="close" viewBox="0 0 32 32">
<path d="M30.355 32c0.422 0 0.843-0.16 1.163-0.483 0.643-0.643 0.643-1.685 0-2.328l-28.707-28.707c-0.643-0.643-1.685-0.643-2.328 0s-0.643 1.685 0 2.329l28.707 28.706c0.323 0.321 0.744 0.483 1.165 0.483z"></path>
<path d="M1.645 32c0.422 0 0.843-0.16 1.163-0.483l28.709-28.706c0.643-0.643 0.643-1.686 0-2.329s-1.685-0.643-2.329 0l-28.707 28.707c-0.643 0.643-0.643 1.685 0 2.328 0.323 0.321 0.744 0.483 1.163 0.483z"></path>
</symbol>
<symbol id="burger" viewBox="0 0 60 32">
<path d="M2 0h56c1.105 0 2 0.895 2 2s-0.895 2-2 2h-56c-1.105 0-2-0.895-2-2s0.895-2 2-2z"></path>
<path d="M2 14h56c1.105 0 2 0.895 2 2s-0.895 2-2 2h-56c-1.105 0-2-0.895-2-2s0.895-2 2-2z"></path>
<path d="M2 28h56c1.105 0 2 0.895 2 2s-0.895 2-2 2h-56c-1.105 0-2-0.895-2-2s0.895-2 2-2z"></path>
</symbol>
<!-- social icon  -->
<symbol id="inst-icon" viewBox="0 0 32 32">
<path d="M16.316 32c-0.106 0-0.212 0-0.319-0-2.508 0.006-4.826-0.058-7.080-0.195-2.066-0.126-3.953-0.84-5.455-2.065-1.45-1.182-2.44-2.781-2.942-4.75-0.438-1.715-0.461-3.398-0.483-5.026-0.016-1.168-0.033-2.553-0.036-3.96 0.003-1.414 0.020-2.798 0.036-3.966 0.022-1.628 0.045-3.311 0.483-5.026 0.503-1.97 1.493-3.568 2.942-4.75 1.503-1.225 3.389-1.939 5.456-2.065 2.254-0.137 4.572-0.201 7.086-0.195 2.509-0.005 4.826 0.058 7.080 0.195 2.066 0.126 3.953 0.84 5.455 2.065 1.45 1.182 2.44 2.781 2.943 4.75 0.437 1.715 0.461 3.398 0.483 5.026 0.016 1.168 0.033 2.553 0.036 3.96v0.006c-0.003 1.408-0.020 2.792-0.036 3.96-0.022 1.628-0.045 3.311-0.483 5.026-0.503 1.97-1.493 3.568-2.943 4.75-1.502 1.225-3.389 1.939-5.455 2.065-2.159 0.131-4.376 0.195-6.768 0.195zM15.997 29.5c2.468 0.006 4.733-0.056 6.934-0.19 1.563-0.095 2.917-0.602 4.027-1.507 1.026-0.837 1.732-1.991 2.1-3.431 0.364-1.428 0.385-2.96 0.406-4.442 0.016-1.16 0.032-2.535 0.036-3.929-0.004-1.394-0.020-2.769-0.036-3.929-0.020-1.482-0.041-3.015-0.406-4.443-0.367-1.44-1.074-2.594-2.1-3.431-1.11-0.905-2.465-1.412-4.027-1.507-2.201-0.134-4.467-0.196-6.928-0.19-2.467-0.006-4.733 0.056-6.934 0.19-1.563 0.095-2.917 0.602-4.027 1.507-1.026 0.837-1.732 1.991-2.1 3.431-0.364 1.428-0.385 2.96-0.406 4.443-0.016 1.161-0.032 2.537-0.036 3.932 0.003 1.389 0.020 2.765 0.036 3.926 0.020 1.482 0.041 3.015 0.406 4.442 0.367 1.44 1.074 2.594 2.1 3.431 1.11 0.905 2.465 1.412 4.027 1.507 2.201 0.134 4.467 0.197 6.928 0.191zM15.937 23.812c-4.308 0-7.813-3.505-7.813-7.812s3.505-7.813 7.813-7.813c4.308 0 7.813 3.505 7.813 7.813s-3.505 7.812-7.813 7.812zM15.937 10.687c-2.929 0-5.313 2.383-5.313 5.313s2.383 5.312 5.313 5.312c2.93 0 5.313-2.383 5.313-5.312s-2.383-5.313-5.313-5.313zM24.625 5.687c-1.035 0-1.875 0.839-1.875 1.875s0.84 1.875 1.875 1.875c1.036 0 1.875-0.839 1.875-1.875s-0.839-1.875-1.875-1.875z"></path>
</symbol>
<symbol id="tvitter-icon" viewBox="0 0 32 32">
<path d="M32 5.441c-1.19 0.583-2.458 0.97-3.78 1.158 1.36-0.908 2.398-2.334 2.886-4.053-1.268 0.845-2.668 1.442-4.16 1.775-1.204-1.433-2.92-2.321-4.792-2.321-3.632 0-6.556 3.295-6.556 7.335 0 0.581 0.044 1.14 0.152 1.672-5.454-0.297-10.28-3.219-13.522-7.671-0.566 1.098-0.898 2.354-0.898 3.707 0 2.54 1.17 4.791 2.914 6.095-1.054-0.022-2.088-0.364-2.964-0.903 0 0.022 0 0.051 0 0.080 0 3.564 2.274 6.524 5.256 7.206-0.534 0.163-1.116 0.241-1.72 0.241-0.42 0-0.844-0.027-1.242-0.125 0.85 2.904 3.262 5.039 6.13 5.109-2.232 1.952-5.066 3.128-8.134 3.128-0.538 0-1.054-0.027-1.57-0.101 2.906 2.095 6.35 3.291 10.064 3.291 12.072 0 18.672-11.178 18.672-20.868 0-0.324-0.010-0.637-0.024-0.948 1.302-1.033 2.396-2.323 3.288-3.807z"></path>
</symbol>
<symbol id="fb-icon" viewBox="0 0 32 32">
<path d="M22.512 0.007l-3.617-0.007c-4.064 0-6.69 3.091-6.69 7.875v3.631h-3.637c-0.314 0-0.569 0.292-0.569 0.653v5.261c0 0.361 0.255 0.652 0.569 0.652h3.637v13.275c0 0.36 0.254 0.652 0.569 0.652h4.745c0.314 0 0.569-0.292 0.569-0.652v-13.275h4.252c0.314 0 0.569-0.292 0.569-0.652l0.002-5.261c0-0.173-0.060-0.339-0.167-0.461s-0.252-0.191-0.402-0.191h-4.254v-3.078c0-1.479 0.307-2.23 1.987-2.23l2.437-0.001c0.314 0 0.568-0.292 0.568-0.652v-4.885c0-0.36-0.254-0.652-0.568-0.652z"></path>
</symbol>
<!-- icon reviews -->
<symbol id="star-all" viewBox="0 0 34 32">
<path fill="#ab816c" style="fill: var(--color1, #ab816c)" d="M15.591 2.79c0.504-1.552 2.699-1.552 3.204 0l2.51 7.726c0.226 0.694 0.872 1.164 1.602 1.164h8.124c1.632 0 2.31 2.088 0.99 3.047l-6.572 4.775c-0.59 0.429-0.837 1.189-0.612 1.883l2.51 7.726c0.504 1.552-1.272 2.842-2.592 1.883l-6.572-4.775c-0.59-0.429-1.39-0.429-1.98 0l-6.572 4.775c-1.32 0.959-3.096-0.331-2.592-1.883l2.51-7.726c0.225-0.694-0.022-1.454-0.612-1.883l-6.572-4.775c-1.32-0.959-0.642-3.047 0.99-3.047h8.124c0.73 0 1.376-0.47 1.602-1.164l2.51-7.726z"></path>
</symbol>
<symbol id="star-border" viewBox="0 0 34 32">
<path fill="none" stroke="#ab816c" style="stroke: var(--color1, #ab816c)" stroke-linejoin="miter" stroke-linecap="butt" stroke-miterlimit="4" stroke-width="1.6842" d="M17.503 3.050l2.51 7.726c0.338 1.041 1.308 1.746 2.403 1.746h8.124c0.816 0 1.155 1.044 0.495 1.523l-6.572 4.775c-0.885 0.643-1.256 1.784-0.918 2.825l2.51 7.726c0.252 0.776-0.636 1.421-1.296 0.941l-6.572-4.775c-0.885-0.643-2.084-0.643-2.97 0l-6.572 4.775c-0.66 0.48-1.548-0.166-1.296-0.941l2.51-7.726c0.338-1.041-0.032-2.181-0.918-2.825l-6.572-4.775c-0.66-0.479-0.321-1.523 0.495-1.523h8.124c1.094 0 2.064-0.705 2.403-1.746l2.51-7.726c0.252-0.776 1.35-0.776 1.602 0z"></path>
</symbol>
</defs>
</svg>