<svg aria-hidden="true" style="position: absolute; width: 0; height: 0; overflow: hidden;" version="1.1" xmlns="http://www.w3.org/2000/svg" xmlns:xlink="http://www.w3.org/1999/xlink">
<defs>
<symbol id="close" viewBox="0 0 32 32">
<path d="M30.355 32c0.422 0 0.843-0.16 1.163-0.483 0.643-0.643 0.643-1.685 0-2.328l-28.707-28.707c-0.643-0.643-1.685-0.643-2.328 0s-0.643 1.685 0 2.329l28.707 28.706c0.323 0.321 0.744 0.483 1.165 0.483z"></path>
<path d="M1.645 32c0.422 0 0.843-0.16 1.163-0.483l28.709-28.706c0.643-0.643 0.643-1.686 0-2.329s-1.685-0.643-2.329 0l-28.707 28.707c-0.643 0.643-0.643 1.685 0 2.328 0.323 0.321 0.744 0.483 1.163 0.483z"></path>
</symbol>
<symbol id="burger" viewBox="0 0 60 32">
<path d="M2 0h56c1.105 0 2 0.895 2 2s-0.895 2-2 2h-56c-1.105 0-2-0.895-2-2s0.895-2 2-2z"></path>
<path d="M2 14h56c1.105 0 2 0.895 2 2s-0.895 2-2 2h-56c-1.105 0-2-0.895-2-2s0.895-2 2-2z"></path>
<path d="M2 28h56c1.105 0 2 0.895 2 2s-0.895 2-2 2h-56c-1.105 0-2-0.895-2-2s0.895-2 2-2z"></path>
</symbol>
<symbol id="star-all" viewBox="0 0 34 32">
<path fill="#ab816c" style="fill: var(--color1, #ab816c)" d="M15.591 2.79c0.504-1.552 2.699-1.552 3.204 0l2.51 7.726c0.226 0.694 0.872 1.164 1.602 1.164h8.124c1.632 0 2.31 2.088 0.99 3.047l-6.572 4.775c-0.59 0.429-0.837 1.189-0.612 1.883l2.51 7.726c0.504 1.552-1.272 2.842-2.592 1.883l-6.572-4.775c-0.59-0.429-1.39-0.429-1.98 0l-6.572 4.775c-1.32 0.959-3.096-0.331-2.592-1.883l2.51-7.726c0.225-0.694-0.022-1.454-0.612-1.883l-6.572-4.775c-1.32-0.959-0.642-3.047 0.99-3.047h8.124c0.73 0 1.376-0.47 1.602-1.164l2.51-7.726z"></path>
</symbol>
<symbol id="star-border" viewBox="0 0 34 32">
<path fill="none" stroke="#ab816c" style="stroke: var(--color1, #ab816c)" stroke-linejoin="miter" stroke-linecap="butt" stroke-miterlimit="4" stroke-width="1.6842" d="M17.503 3.050l2.51 7.726c0.338 1.041 1.308 1.746 2.403 1.746h8.124c0.816 0 1.155 1.044 0.495 1.523l-6.572 4.775c-0.885 0.643-1.256 1.784-0.918 2.825l2.51 7.726c0.252 0.776-0.636 1.421-1.296 0.941l-6.572-4.775c-0.885-0.643-2.084-0.643-2.97 0l-6.572 4.775c-0.66 0.48-1.548-0.166-1.296-0.941l2.51-7.726c0.338-1.041-0.032-2.181-0.918-2.825l-6.572-4.775c-0.66-0.479-0.321-1.523 0.495-1.523h8.124c1.094 0 2.064-0.705 2.403-1.746l2.51-7.726c0.252-0.776 1.35-0.776 1.602 0z"></path>
</symbol>
</defs>
</svg>