<svg aria-hidden="true" style="position: absolute; width: 0; height: 0; overflow: hidden;" version="1.1" xmlns="http://www.w3.org/2000/svg" xmlns:xlink="http://www.w3.org/1999/xlink">
<defs>
<symbol id="close" viewBox="0 0 32 32">
<path d="M30.355 32c0.422 0 0.843-0.16 1.163-0.483 0.643-0.643 0.643-1.685 0-2.328l-28.707-28.707c-0.643-0.643-1.685-0.643-2.328 0s-0.643 1.685 0 2.329l28.707 28.706c0.323 0.321 0.744 0.483 1.165 0.483z"></path>
<path d="M1.645 32c0.422 0 0.843-0.16 1.163-0.483l28.709-28.706c0.643-0.643 0.643-1.686 0-2.329s-1.685-0.643-2.329 0l-28.707 28.707c-0.643 0.643-0.643 1.685 0 2.328 0.323 0.321 0.744 0.483 1.163 0.483z"></path>
</symbol>
<symbol id="burger" viewBox="0 0 60 32">
<path d="M2 0h56c1.105 0 2 0.895 2 2s-0.895 2-2 2h-56c-1.105 0-2-0.895-2-2s0.895-2 2-2z"></path>
<path d="M2 14h56c1.105 0 2 0.895 2 2s-0.895 2-2 2h-56c-1.105 0-2-0.895-2-2s0.895-2 2-2z"></path>
<path d="M2 28h56c1.105 0 2 0.895 2 2s-0.895 2-2 2h-56c-1.105 0-2-0.895-2-2s0.895-2 2-2z"></path>
</symbol>
<!-- social icon  -->
<symbol id="inst-icon" viewBox="0 0 32 32">
<path d="M16.316 32c-0.106 0-0.212 0-0.319-0-2.508 0.006-4.826-0.058-7.080-0.195-2.066-0.126-3.953-0.84-5.455-2.065-1.45-1.182-2.44-2.781-2.942-4.75-0.438-1.715-0.461-3.398-0.483-5.026-0.016-1.168-0.033-2.553-0.036-3.96 0.003-1.414 0.020-2.798 0.036-3.966 0.022-1.628 0.045-3.311 0.483-5.026 0.503-1.97 1.493-3.568 2.942-4.75 1.503-1.225 3.389-1.939 5.456-2.065 2.254-0.137 4.572-0.201 7.086-0.195 2.509-0.005 4.826 0.058 7.080 0.195 2.066 0.126 3.953 0.84 5.455 2.065 1.45 1.182 2.44 2.781 2.943 4.75 0.437 1.715 0.461 3.398 0.483 5.026 0.016 1.168 0.033 2.553 0.036 3.96v0.006c-0.003 1.408-0.020 2.792-0.036 3.96-0.022 1.628-0.045 3.311-0.483 5.026-0.503 1.97-1.493 3.568-2.943 4.75-1.502 1.225-3.389 1.939-5.455 2.065-2.159 0.131-4.376 0.195-6.768 0.195zM15.997 29.5c2.468 0.006 4.733-0.056 6.934-0.19 1.563-0.095 2.917-0.602 4.027-1.507 1.026-0.837 1.732-1.991 2.1-3.431 0.364-1.428 0.385-2.96 0.406-4.442 0.016-1.16 0.032-2.535 0.036-3.929-0.004-1.394-0.020-2.769-0.036-3.929-0.020-1.482-0.041-3.015-0.406-4.443-0.367-1.44-1.074-2.594-2.1-3.431-1.11-0.905-2.465-1.412-4.027-1.507-2.201-0.134-4.467-0.196-6.928-0.19-2.467-0.006-4.733 0.056-6.934 0.19-1.563 0.095-2.917 0.602-4.027 1.507-1.026 0.837-1.732 1.991-2.1 3.431-0.364 1.428-0.385 2.96-0.406 4.443-0.016 1.161-0.032 2.537-0.036 3.932 0.003 1.389 0.020 2.765 0.036 3.926 0.020 1.482 0.041 3.015 0.406 4.442 0.367 1.44 1.074 2.594 2.1 3.431 1.11 0.905 2.465 1.412 4.027 1.507 2.201 0.134 4.467 0.197 6.928 0.191zM15.937 23.812c-4.308 0-7.813-3.505-7.813-7.812s3.505-7.813 7.813-7.813c4.308 0 7.813 3.505 7.813 7.813s-3.505 7.812-7.813 7.812zM15.937 10.687c-2.929 0-5.313 2.383-5.313 5.313s2.383 5.312 5.313 5.312c2.93 0 5.313-2.383 5.313-5.312s-2.383-5.313-5.313-5.313zM24.625 5.687c-1.035 0-1.875 0.839-1.875 1.875s0.84 1.875 1.875 1.875c1.036 0 1.875-0.839 1.875-1.875s-0.839-1.875-1.875-1.875z"></path>
</symbol>
<symbol id="tvitter-icon" viewBox="0 0 32 32">
<path d="M32 5.441c-1.19 0.583-2.458 0.97-3.78 1.158 1.36-0.908 2.398-2.334 2.886-4.053-1.268 0.845-2.668 1.442-4.16 1.775-1.204-1.433-2.92-2.321-4.792-2.321-3.632 0-6.556 3.295-6.556 7.335 0 0.581 0.044 1.14 0.152 1.672-5.454-0.297-10.28-3.219-13.522-7.671-0.566 1.098-0.898 2.354-0.898 3.707 0 2.54 1.17 4.791 2.914 6.095-1.054-0.022-2.088-0.364-2.964-0.903 0 0.022 0 0.051 0 0.080 0 3.564 2.274 6.524 5.256 7.206-0.534 0.163-1.116 0.241-1.72 0.241-0.42 0-0.844-0.027-1.242-0.125 0.85 2.904 3.262 5.039 6.13 5.109-2.232 1.952-5.066 3.128-8.134 3.128-0.538 0-1.054-0.027-1.57-0.101 2.906 2.095 6.35 3.291 10.064 3.291 12.072 0 18.672-11.178 18.672-20.868 0-0.324-0.010-0.637-0.024-0.948 1.302-1.033 2.396-2.323 3.288-3.807z"></path>
</symbol>
<symbol id="fb-icon" viewBox="0 0 32 32">
<path d="M22.512 0.007l-3.617-0.007c-4.064 0-6.69 3.091-6.69 7.875v3.631h-3.637c-0.314 0-0.569 0.292-0.569 0.653v5.261c0 0.361 0.255 0.652 0.569 0.652h3.637v13.275c0 0.36 0.254 0.652 0.569 0.652h4.745c0.314 0 0.569-0.292 0.569-0.652v-13.275h4.252c0.314 0 0.569-0.292 0.569-0.652l0.002-5.261c0-0.173-0.060-0.339-0.167-0.461s-0.252-0.191-0.402-0.191h-4.254v-3.078c0-1.479 0.307-2.23 1.987-2.23l2.437-0.001c0.314 0 0.568-0.292 0.568-0.652v-4.885c0-0.36-0.254-0.652-0.568-0.652z"></path>
</symbol>
<!-- icon reviews -->
<symbol id="star-all" viewBox="0 0 34 32">
<path fill="#ab816c" style="fill: var(--color1, #ab816c)" d="M15.591 2.79c0.504-1.552 2.699-1.552 3.204 0l2.51 7.726c0.226 0.694 0.872 1.164 1.602 1.164h8.124c1.632 0 2.31 2.088 0.99 3.047l-6.572 4.775c-0.59 0.429-0.837 1.189-0.612 1.883l2.51 7.726c0.504 1.552-1.272 2.842-2.592 1.883l-6.572-4.775c-0.59-0.429-1.39-0.429-1.98 0l-6.572 4.775c-1.32 0.959-3.096-0.331-2.592-1.883l2.51-7.726c0.225-0.694-0.022-1.454-0.612-1.883l-6.572-4.775c-1.32-0.959-0.642-3.047 0.99-3.047h8.124c0.73 0 1.376-0.47 1.602-1.164l2.51-7.726z"></path>
</symbol>
<symbol id="star-border" viewBox="0 0 34 32">
<path fill="none" stroke="#ab816c" style="stroke: var(--color1, #ab816c)" stroke-linejoin="miter" stroke-linecap="butt" stroke-miterlimit="4" stroke-width="1.6842" d="M17.503 3.050l2.51 7.726c0.338 1.041 1.308 1.746 2.403 1.746h8.124c0.816 0 1.155 1.044 0.495 1.523l-6.572 4.775c-0.885 0.643-1.256 1.784-0.918 2.825l2.51 7.726c0.252 0.776-0.636 1.421-1.296 0.941l-6.572-4.775c-0.885-0.643-2.084-0.643-2.97 0l-6.572 4.775c-0.66 0.48-1.548-0.166-1.296-0.941l2.51-7.726c0.338-1.041-0.032-2.181-0.918-2.825l-6.572-4.775c-0.66-0.479-0.321-1.523 0.495-1.523h8.124c1.094 0 2.064-0.705 2.403-1.746l2.51-7.726c0.252-0.776 1.35-0.776 1.602 0z"></path>
</symbol>
</defs>
                            <!-- svg for program  -->
<defs>
<symbol id="icon-chat" viewBox="0 0 32 32">
<path  d="M24.62 16.411c0-5.844-6.159-9.674-12.308-9.674-6.176 0-12.312 3.848-12.312 9.674 0 2.205 0.965 4.359 2.718 6.070 0.067 0.064 0.093 0.163 0.067 0.258-0.551 2.018-1.854 3.84-2.392 4.531-0.092 0.116-0.147 0.264-0.147 0.426 0 0.115 0.028 0.224 0.078 0.319l-0.002-0.004c0.116 0.228 0.349 0.381 0.617 0.381 0.002 0 0.003 0 0.005 0h0.017c2.619-0.066 5.654-0.805 7.53-2.649 0.048-0.047 0.114-0.076 0.187-0.076 0.023 0 0.046 0.003 0.068 0.009l-0.002-0c1.064 0.261 2.286 0.411 3.543 0.411 0.008 0 0.016 0 0.024-0h-0.001c6.173 0 12.312-3.847 12.312-9.674zM8.96 24.761c-0.085-0.021-0.182-0.034-0.282-0.034-0.328 0-0.626 0.132-0.843 0.345l0-0c-1.876 1.844-4.94 2.264-6.39 2.358 0.662-0.915 1.74-2.594 2.245-4.445 0.027-0.096 0.043-0.206 0.043-0.319 0-0.336-0.138-0.64-0.36-0.858l-0-0c-1.593-1.553-2.435-3.417-2.435-5.398 0-4.817 5.101-8.736 11.372-8.736 6.272 0 11.373 3.919 11.373 8.736s-5.103 8.738-11.373 8.738c-0.005 0-0.010 0-0.016 0-1.183 0-2.332-0.141-3.433-0.408l0.099 0.020z"></path>
<path  d="M27.636 24.2c2.73-1.381 4.364-3.737 4.364-6.299 0-3.621-3.272-6.713-7.781-7.355-0.016-0.002-0.035-0.003-0.055-0.003-0.259 0-0.468 0.21-0.468 0.468 0 0.23 0.166 0.422 0.385 0.461l0.003 0c4.044 0.578 6.978 3.281 6.978 6.43 0 2.2-1.438 4.241-3.85 5.46-0.38 0.195-0.635 0.585-0.635 1.034 0 0.085 0.009 0.168 0.026 0.247l-0.001-0.008c0.229 1.075 0.716 2.068 1.105 2.744-2.769-0.461-3.818-1.79-4.15-2.365-0.204-0.346-0.575-0.574-1-0.574-0 0-0.001 0-0.001 0h-0.039c-0.52 0-1.041-0.037-1.546-0.108-0.009-0.001-0.020-0.001-0.032-0.001-0.26 0-0.47 0.21-0.47 0.47 0 0.224 0.157 0.412 0.367 0.459l0.003 0.001c0.549 0.077 1.115 0.118 1.677 0.118h0.039c0.079 0 0.152 0.039 0.189 0.104 1.27 2.201 4.187 2.762 5.383 2.902 0.025 0.003 0.053 0.005 0.083 0.005 0.241 0 0.453-0.127 0.573-0.317l0.002-0.003c0.066-0.102 0.105-0.227 0.105-0.361 0-0.136-0.040-0.263-0.11-0.369l0.002 0.003c-0.36-0.561-1.004-1.684-1.263-2.902-0.003-0.013-0.005-0.029-0.005-0.044 0-0.086 0.049-0.16 0.121-0.196l0.001-0.001zM5.016 14.735c-0.859 0.049-1.536 0.758-1.536 1.624s0.678 1.575 1.532 1.624l0.004 0c0.866-0.041 1.553-0.753 1.553-1.625s-0.687-1.585-1.549-1.625l-0.004-0zM5.016 17.046c-0.38-0-0.687-0.308-0.687-0.688s0.308-0.688 0.688-0.688c0 0 0.001 0 0.001 0h-0c0.38 0 0.688 0.308 0.688 0.688s-0.308 0.688-0.688 0.688v0zM9.651 14.735c-0.859 0.049-1.536 0.758-1.536 1.624s0.678 1.575 1.532 1.624l0.004 0c0.866-0.041 1.553-0.753 1.553-1.625s-0.687-1.585-1.549-1.625l-0.004-0zM9.651 17.046c-0.38 0-0.688-0.308-0.688-0.688s0.308-0.688 0.688-0.688v0c0.38 0 0.688 0.308 0.688 0.688s-0.308 0.688-0.688 0.688v0zM14.285 14.735c-0.859 0.049-1.536 0.758-1.536 1.624s0.678 1.575 1.532 1.624l0.004 0c0.866-0.041 1.553-0.753 1.553-1.625s-0.687-1.585-1.549-1.625l-0.004-0zM14.285 17.046c-0.38 0-0.688-0.308-0.688-0.688s0.308-0.688 0.688-0.688v0c0.38 0 0.688 0.308 0.688 0.688s-0.308 0.688-0.688 0.688v0zM18.919 14.735c-0.859 0.049-1.536 0.758-1.536 1.624s0.678 1.575 1.532 1.624l0.004 0c0.866-0.041 1.553-0.753 1.553-1.625s-0.687-1.585-1.549-1.625l-0.004-0zM18.919 17.046c-0.38-0-0.687-0.308-0.687-0.688s0.308-0.688 0.688-0.688c0 0 0.001 0 0.001 0h-0c0.38 0 0.688 0.308 0.688 0.688s-0.308 0.688-0.688 0.688v0z"></path>
</symbol>
<symbol id="icon-clock" viewBox="0 0 32 32">
<path  d="M16 0c-8.822 0-16 7.178-16 16s7.178 16 16 16 16-7.178 16-16-7.178-16-16-16zM16 30.934c-8.234 0-14.934-6.7-14.934-14.934s6.7-14.934 14.934-14.934c8.234 0 14.934 6.7 14.934 14.934s-6.7 14.934-14.934 14.934z"></path>
<path  d="M16.534 13.878v-5.41c0-0.295-0.239-0.534-0.534-0.534s-0.534 0.239-0.534 0.534v0 5.41c-0.746 0.194-1.331 0.778-1.524 1.524h-3.808c-0.009-0.001-0.019-0.001-0.030-0.001-0.295 0-0.534 0.239-0.534 0.534s0.239 0.534 0.534 0.534c0.011 0 0.021-0 0.031-0.001l-0.001 0h3.808c0.239 0.918 1.068 1.6 2.058 1.6 1.176 0 2.134-0.957 2.134-2.132 0-0.992-0.684-1.819-1.6-2.058zM16 17.002c-0.59 0-1.068-0.478-1.068-1.068s0.478-1.068 1.068-1.068v0c0.589 0 1.067 0.478 1.067 1.068s-0.478 1.068-1.068 1.068c-0 0-0.001 0-0.001 0h0zM16 5.268c0 0 0 0 0 0 0.294 0 0.533-0.238 0.534-0.532v-0.534c0-0.295-0.239-0.534-0.534-0.534s-0.534 0.239-0.534 0.534v0 0.534c0 0.295 0.239 0.532 0.534 0.532zM16 26.602c-0.295 0-0.534 0.239-0.534 0.534v0 0.534c0 0.295 0.239 0.534 0.534 0.534s0.534-0.239 0.534-0.534v0-0.534c0-0.295-0.239-0.534-0.534-0.534v0zM27.734 15.402h-0.534c-0.009-0.001-0.019-0.001-0.030-0.001-0.295 0-0.534 0.239-0.534 0.534s0.239 0.534 0.534 0.534c0.011 0 0.021-0 0.031-0.001l-0.001 0h0.534c0.009 0.001 0.019 0.001 0.030 0.001 0.295 0 0.534-0.239 0.534-0.534s-0.239-0.534-0.534-0.534c-0.011 0-0.021 0-0.031 0.001l0.001-0zM4.8 15.402h-0.534c-0.009-0.001-0.019-0.001-0.030-0.001-0.295 0-0.534 0.239-0.534 0.534s0.239 0.534 0.534 0.534c0.011 0 0.021-0 0.031-0.001l-0.001 0h0.534c0.009 0.001 0.019 0.001 0.030 0.001 0.295 0 0.534-0.239 0.534-0.534s-0.239-0.534-0.534-0.534c-0.011 0-0.021 0-0.031 0.001l0.001-0zM23.919 7.261l-0.377 0.377c-0.097 0.097-0.156 0.23-0.156 0.377 0 0.295 0.239 0.534 0.534 0.534 0.147 0 0.281-0.060 0.377-0.156l0.377-0.377c0.097-0.097 0.156-0.23 0.156-0.377 0-0.295-0.239-0.534-0.534-0.534-0.147 0-0.281 0.060-0.377 0.156v0zM7.704 23.478l-0.377 0.377c-0.097 0.097-0.156 0.23-0.156 0.377 0 0.295 0.239 0.534 0.534 0.534 0.147 0 0.281-0.060 0.377-0.156l0.377-0.377c0.097-0.097 0.156-0.23 0.156-0.377 0-0.295-0.239-0.534-0.534-0.534-0.147 0-0.281 0.060-0.377 0.156v0zM24.296 23.478c-0.097-0.097-0.23-0.156-0.377-0.156-0.295 0-0.534 0.239-0.534 0.534 0 0.147 0.060 0.281 0.156 0.377l0.377 0.377c0.097 0.097 0.23 0.156 0.377 0.156 0.295 0 0.534-0.239 0.534-0.534 0-0.147-0.060-0.281-0.156-0.377l-0.377-0.377zM8.081 7.261c-0.097-0.097-0.23-0.156-0.377-0.156-0.295 0-0.534 0.239-0.534 0.534 0 0.147 0.060 0.281 0.156 0.377l0.377 0.377c0.096 0.097 0.23 0.157 0.377 0.157s0.281-0.060 0.377-0.157l0-0c0.097-0.096 0.157-0.23 0.157-0.377s-0.060-0.281-0.157-0.377l-0.377-0.377z"></path>
</symbol>
<symbol id="icon-people" viewBox="0 0 32 32">
<path  d="M10.936 1.684c-3.401 0.005-6.156 2.76-6.161 6.16v0c0.005 3.401 2.76 6.156 6.16 6.161h0c3.401-0.005 6.156-2.76 6.161-6.16v-0c-0.005-3.401-2.76-6.156-6.16-6.161h-0zM10.936 12.972c-2.834-0.003-5.131-2.3-5.133-5.133v-0c0.006-2.833 2.301-5.128 5.133-5.133h0.001c2.834 0.003 5.131 2.3 5.133 5.133v0c-0.006 2.833-2.301 5.128-5.133 5.133h-0.001zM23.554 4.243c-2.553 0.002-4.621 2.071-4.623 4.623v0c0.002 2.553 2.071 4.621 4.623 4.623h0c2.553-0.002 4.621-2.071 4.623-4.623v-0c-0.002-2.553-2.071-4.621-4.623-4.623h-0zM23.554 12.468c-1.986-0.001-3.596-1.61-3.597-3.596v-0c0-1.986 1.613-3.597 3.597-3.597s3.596 1.612 3.596 3.597c-0.002 1.985-1.611 3.594-3.596 3.596h-0z"></path>
<path  d="M31.823 20.266c-0.465-2.809-2.21-5.177-5.184-6.417 0 0-1.315 0.994-3.085 0.962-1.935-0.037-3.087-0.963-3.087-0.963s-1.437 0.536-2.595 1.651c-1.071-0.952-2.88-1.726-2.88-1.726s-1.656 1.26-4.062 1.241c-2.526-0.019-4.049-1.241-4.049-1.241s-5.462 1.878-6.616 8.246c0 0-1.235 3.377 1.625 8.421h18.099s1.285-2.235 1.511-3.596h9.002c2.211-3.352 1.322-6.577 1.322-6.577zM19.352 29.411h-16.825c-2.198-4.173-1.246-7.222-1.246-7.222 0.552-3.239 2.635-5.896 5.465-7.232l0.059-0.025c1.186 0.698 2.612 1.11 4.135 1.11s2.949-0.412 4.174-1.131l-0.039 0.021c2.889 1.361 4.973 4.018 5.516 7.2l0.008 0.058c-0.005 0 0.908 3.756-1.246 7.225zM29.903 25.816h-8.195c0.315-1.814-0.101-3.798-0.101-3.798-0.389-2.294-1.454-4.29-2.982-5.828l0.001 0.001c0.531-0.478 1.117-0.876 1.758-1.184 0.911 0.523 2.003 0.832 3.166 0.832s2.256-0.309 3.198-0.849l-0.031 0.017c2.14 1.034 3.681 3.016 4.087 5.386l0.006 0.043s0.749 2.545-0.906 5.379z"></path>
</symbol>
<symbol id="icon-chef-hat" viewBox="0 0 32 32">
<path  d="M23.149 9.63c-0.252 0-0.456-0.204-0.456-0.456v0c-0.103-3.617-3.059-6.511-6.692-6.511s-6.59 2.893-6.692 6.501l-0 0.009c0 0.253-0.205 0.457-0.457 0.457s-0.457-0.205-0.457-0.457v0c0.064-4.153 3.445-7.494 7.607-7.494s7.543 3.342 7.607 7.488l0 0.006c0 0 0 0 0 0 0 0.252-0.204 0.456-0.456 0.456-0.001 0-0.001 0-0.002 0h0z"></path>
<path  d="M24.485 19.975c-0.001 0-0.002 0-0.003 0-0.252 0-0.456-0.204-0.456-0.456 0-0.251 0.202-0.454 0.453-0.456h0c3.624-0.021 6.559-2.94 6.607-6.555l0-0.005c-0.037-3.638-2.995-6.574-6.639-6.574-0.017 0-0.033 0-0.050 0h0.003c-0.677-0.002-1.347 0.098-1.994 0.295-0.036 0.010-0.078 0.016-0.121 0.016-0.253 0-0.458-0.205-0.458-0.458 0-0.2 0.129-0.371 0.308-0.433l0.003-0.001c0.733-0.222 1.494-0.335 2.26-0.333 0.014-0 0.031-0 0.047-0 4.149 0 7.517 3.344 7.555 7.485l0 0.004c-0.050 4.121-3.388 7.445-7.509 7.475h-0.006zM7.515 19.975h-0.003c-4.123-0.029-7.461-3.353-7.512-7.468l-0-0.005c0.037-4.143 3.405-7.488 7.553-7.488 0.017 0 0.035 0 0.052 0h-0.003c0.765-0.002 1.528 0.111 2.26 0.335 0.188 0.059 0.323 0.233 0.323 0.437 0 0.253-0.205 0.457-0.457 0.457-0.048 0-0.094-0.007-0.138-0.021l0.003 0.001c-0.592-0.187-1.273-0.295-1.979-0.295-0.004 0-0.008 0-0.013 0h0.001c-0.015-0-0.032-0-0.049-0-3.644 0-6.602 2.935-6.639 6.57l-0 0.004c0.048 3.62 2.983 6.538 6.605 6.56h0.002c0.007-0 0.016-0.001 0.024-0.001 0.253 0 0.458 0.205 0.458 0.458s-0.205 0.458-0.458 0.458c-0.011 0-0.022-0-0.032-0.001l0.001 0z"></path>
<path  d="M24.485 31.348h-16.97c-0.252 0-0.456-0.204-0.456-0.456v0-11.372c0-0.253 0.205-0.457 0.457-0.457s0.457 0.205 0.457 0.457v0 10.914h16.054v-10.914c0.015-0.241 0.214-0.43 0.457-0.43s0.442 0.19 0.457 0.429l0 0.001v11.372c0 0.252-0.204 0.456-0.456 0.456v0z"></path>
<path  d="M27.667 26.919h-16.972c-0.253 0-0.457-0.205-0.457-0.457s0.205-0.457 0.457-0.457v0h16.97c0.253 0 0.457 0.205 0.457 0.457s-0.205 0.457-0.457 0.457v0z"></path>
</symbol>
</defs>
</svg>