<svg aria-hidden="true" style="position:absolute;width:0;height:0;overflow:hidden" xmlns="http://www.w3.org/2000/svg"><defs>
<symbol id="icon-facebook" viewBox="0 0 16 32"><path d="M14.512.007 10.895 0c-4.064 0-6.69 3.091-6.69 7.875v3.631H.568c-.314 0-.569.292-.569.653v5.261c0 .361.255.652.569.652h3.637v13.275c0 .36.254.652.569.652h4.745c.314 0 .569-.292.569-.652V18.072h4.252c.314 0 .569-.292.569-.652l.002-5.261c0-.173-.06-.339-.167-.461s-.252-.191-.402-.191h-4.254V8.429c0-1.479.307-2.23 1.987-2.23l2.437-.001c.314 0 .568-.292.568-.652V.661c0-.36-.254-.652-.568-.652z"/></symbol>
<symbol id="icon-instagram" viewBox="0 0 32 32"><path d="M16.316 32h-.319c-2.508.006-4.826-.058-7.08-.195-2.066-.126-3.953-.84-5.455-2.065-1.45-1.182-2.44-2.781-2.942-4.75-.438-1.715-.461-3.398-.483-5.026a343.853 343.853 0 0 1-.036-3.96c.003-1.414.02-2.798.036-3.966.022-1.628.045-3.311.483-5.026.503-1.97 1.493-3.568 2.942-4.75C4.965 1.037 6.851.323 8.918.197 11.172.06 13.49-.004 16.004.002c2.509-.005 4.826.058 7.08.195 2.066.126 3.953.84 5.455 2.065 1.45 1.182 2.44 2.781 2.943 4.75.437 1.715.461 3.398.483 5.026.016 1.168.033 2.553.036 3.96v.006c-.003 1.408-.02 2.792-.036 3.96-.022 1.628-.045 3.311-.483 5.026-.503 1.97-1.493 3.568-2.943 4.75-1.502 1.225-3.389 1.939-5.455 2.065-2.159.131-4.376.195-6.768.195zm-.319-2.5c2.468.006 4.733-.056 6.934-.19 1.563-.095 2.917-.602 4.027-1.507 1.026-.837 1.732-1.991 2.1-3.431.364-1.428.385-2.96.406-4.442.016-1.16.032-2.535.036-3.929-.004-1.394-.02-2.769-.036-3.929-.02-1.482-.041-3.015-.406-4.443-.367-1.44-1.074-2.594-2.1-3.431-1.11-.905-2.465-1.412-4.027-1.507a108.807 108.807 0 0 0-6.928-.19c-2.467-.006-4.733.056-6.934.19-1.563.095-2.917.602-4.027 1.507-1.026.837-1.732 1.991-2.1 3.431-.364 1.428-.385 2.96-.406 4.443a363.726 363.726 0 0 0-.036 3.932c.003 1.389.02 2.765.036 3.926.02 1.482.041 3.015.406 4.442.367 1.44 1.074 2.594 2.1 3.431 1.11.905 2.465 1.412 4.027 1.507 2.201.134 4.467.197 6.928.191zm-.06-5.688c-4.308 0-7.813-3.505-7.813-7.812s3.505-7.813 7.813-7.813S23.75 11.692 23.75 16s-3.505 7.812-7.813 7.812zm0-13.125c-2.929 0-5.313 2.383-5.313 5.313s2.383 5.312 5.313 5.312c2.93 0 5.313-2.383 5.313-5.312s-2.383-5.313-5.313-5.313zm8.688-5a1.875 1.875 0 1 0 0 3.75 1.875 1.875 0 0 0 0-3.75z"/></symbol>
<symbol id="icon-location" viewBox="0 0 32 32"><path d="M16 0c6.932 0 12.571 5.271 12.571 11.75 0 2.564-.866 5-2.508 7.044l-9.289 11.693c-.023.028-.059.039-.084.064a.977.977 0 0 1-1.465-.064c-2.675-3.336-7.578-9.566-9.463-11.916l-.001-.003-.012-.014C4.23 16.56 3.427 14.207 3.427 11.75 3.427 5.271 9.067 0 15.998 0zm0 18.089c3.732 0 6.782-2.851 6.782-6.339S19.732 5.411 16 5.411 9.218 8.262 9.218 11.75s3.05 6.339 6.782 6.339z"/></symbol>
<symbol id="icon-telephone" viewBox="0 0 32 32"><path d="M29.43 19.631a19.33 19.33 0 0 1-5.705-.849c-.893-.285-1.991-.024-2.536.5l-3.598 2.539c-4.172-2.082-6.743-4.483-8.939-8.354l2.636-3.275c.685-.639.931-1.573.636-2.449a15.997 15.997 0 0 1-.912-5.342c0-1.323-1.152-2.4-2.567-2.4H2.569C1.153.001.001 1.078.001 2.401c0 15.168 13.202 27.508 29.43 27.508 1.416 0 2.568-1.077 2.568-2.4v-5.477c0-1.323-1.152-2.4-2.568-2.4z"/></symbol>
<symbol id="icon-twitter" viewBox="0 0 32 32"><path d="M32 4.441c-1.19.583-2.458.97-3.78 1.158 1.36-.908 2.398-2.334 2.886-4.053a12.307 12.307 0 0 1-4.16 1.775C25.742 1.888 24.026 1 22.154 1c-3.632 0-6.556 3.295-6.556 7.335 0 .581.044 1.14.152 1.672C10.296 9.71 5.47 6.788 2.228 2.336a8.059 8.059 0 0 0-.898 3.707c0 2.54 1.17 4.791 2.914 6.095-1.054-.022-2.088-.364-2.964-.903v.08c0 3.564 2.274 6.524 5.256 7.206a5.905 5.905 0 0 1-1.72.241c-.42 0-.844-.027-1.242-.125.85 2.904 3.262 5.039 6.13 5.109-2.232 1.952-5.066 3.128-8.134 3.128-.538 0-1.054-.027-1.57-.101 2.906 2.095 6.35 3.291 10.064 3.291 12.072 0 18.672-11.178 18.672-20.868 0-.324-.01-.637-.024-.948C30.014 7.215 31.108 5.925 32 4.441z"/></symbol></defs></svg>